 http://www.imdb.com/title/tt1470023/

Release Date: 21 May 2010 (USA)

Genre: Action | Comedy

Plot: Ex-special operative MacGruber is called back into action to take down his archenemy, Dieter Von Cunth, who's in possession of a nuclear warhead and bent on destroying Washington, D.C.

Cast:
Will Forte ... MacGruber
Kristen Wiig ... Vicki St. Elmo
Ryan Phillippe ... Lt. Dixon Piper
Val Kilmer ... Dieter Von Cunth
Powers Boothe ... Col. James Faith
Maya Rudolph ... Casey
Rhys Coiro ... Yerik Novikov
Andy Mackenzie ... Hoss Bender
Jasper Cole ... Zeke Pleshette
Timothy V. Murphy ... Constantine
Kevin Skousen ... Senator Garver
Jim Giesler ... Janitor (as Jimmy G. Giesler)
Chris Jericho ... Frank Korver
Mark Henry ... Tut Beemer
Antonio Banks ... Vernon Freedom (as MVP)

Screens
 
http://www.imagebam.com/image/47daff95526093

File Name

MacGruber 2010 800p BRRip H264.mp4

File Size
Format : MPEG-4
Format profile : Base Media
Codec ID : isom
File size : 3.74 GiB
Duration : 1h 34mn
Overall bit rate : 5 640 Kbps

Video
ID : 1
Format : AVC
Format/Info : Advanced Video Codec
Format profile : High@L4.1
Format settings, CABAC : Yes
Format settings, ReFrames : 3 frames
Codec ID : avc1
Codec ID/Info : Advanced Video Coding
Duration : 1h 34mn
Bit rate mode : Variable
Bit rate : 4 999 Kbps
Maximum bit rate : 23.8 Mbps
Width : 1 920 pixels
Height : 800 pixels
Display aspect ratio : 2.40:1
Frame rate mode : Constant
Frame rate : 23.976 fps
Resolution : 24 bits
Colorimetry : 4:2:0
Scan type : Progressive
Bits/(Pixel*Frame) : 0.136
Stream size : 3.31 GiB (89%)

Audio #1
ID : 2
Format : AAC
Format/Info : Advanced Audio Codec
Format version : Version 4
Format profile : LC
Format settings, SBR : No
Codec ID : 40
Duration : 1h 34mn
Bit rate mode : Variable
Bit rate : 192 Kbps
Maximum bit rate : 198 Kbps
Channel(s) : 2 channels
Channel positions : L R
Sampling rate : 48.0 KHz
Resolution : 16 bits
Stream size : 130 MiB (3%)

Audio #2
ID : 3
Format : AAC
Format/Info : Advanced Audio Codec
Format version : Version 4
Format profile : LC
Format settings, SBR : No
Codec ID : 40
Duration : 1h 34mn
Bit rate mode : Variable
Bit rate : 448 Kbps
Maximum bit rate : 464 Kbps
Channel(s) : 6 channels
Channel positions : Front: L C R, Rear: L R, LFE
Sampling rate : 48.0 KHz
Resolution : 16 bits
Stream size : 304 MiB (8%)

English SRT : ----

Language : English